<?xml version="1.0" encoding="UTF-8" standalone="no"?>
<svg
   xmlns:dc="http://purl.org/dc/elements/1.1/"
   xmlns:cc="http://creativecommons.org/ns#"
   xmlns:rdf="http://www.w3.org/1999/02/22-rdf-syntax-ns#"
   xmlns:svg="http://www.w3.org/2000/svg"
   xmlns="http://www.w3.org/2000/svg"
   viewBox="0 0 629.33331 149.33333"
   height="149.33333"
   width="629.33331"
   xml:space="preserve"
   id="svg2"
   version="1.1"><metadata
     id="metadata8"><rdf:RDF><cc:Work
         rdf:about=""><dc:format>image/svg+xml</dc:format><dc:type
           rdf:resource="http://purl.org/dc/dcmitype/StillImage" /></cc:Work></rdf:RDF></metadata><defs
     id="defs6" /><g
     transform="matrix(1.3333333,0,0,-1.3333333,0,149.33333)"
     id="g10"><g
       transform="scale(0.1)"
       id="g12"><path
         id="path14"
         style="fill:#1155aa;fill-opacity:1;fill-rule:nonzero;stroke:none"
         d="m 1548.26,165.152 c -32.47,0 -62.05,5.34 -88.75,16.016 -26.69,10.68 -49.6,26.246 -68.72,46.715 -19.13,20.461 -33.93,45.703 -44.38,75.73 -10.45,30.028 -15.68,64.399 -15.68,103.098 0,38.703 5.9,73.07 17.68,103.105 11.79,30.028 27.69,55.27 47.71,75.731 20.02,20.469 43.38,36.031 70.07,46.711 26.69,10.68 55.16,16.015 85.41,16.015 19.13,0 36.37,-1.332 51.71,-4.003 15.35,-2.672 28.7,-5.786 40.04,-9.34 11.35,-3.563 20.58,-7.125 27.7,-10.68 7.11,-3.559 12.01,-6.227 14.68,-8.004 l -18.69,-53.383 c -4,2.664 -9.79,5.555 -17.34,8.672 -7.57,3.113 -16.14,6.223 -25.7,9.344 -9.57,3.113 -20.02,5.668 -31.36,7.668 -11.35,2.004 -22.8,3.004 -34.37,3.004 -24.46,0 -46.48,-4.223 -66.06,-12.672 -19.57,-8.457 -36.25,-20.691 -50.05,-36.703 -13.78,-16.016 -24.35,-35.481 -31.69,-58.395 -7.34,-22.902 -11.02,-48.597 -11.02,-77.07 0,-27.578 3.24,-52.711 9.69,-75.402 6.45,-22.692 16.12,-42.149 29.02,-58.383 12.9,-16.242 29.03,-28.809 48.38,-37.703 19.35,-8.899 41.92,-13.344 67.73,-13.344 29.8,0 54.5,3.113 74.07,9.336 19.57,6.226 34.25,11.793 44.04,16.683 l 16.69,-53.386 c -3.12,-2.223 -8.68,-5.004 -16.69,-8.336 -8.01,-3.336 -18.02,-6.567 -30.03,-9.68 -12.01,-3.113 -26.02,-5.777 -42.04,-8.008 -16.01,-2.222 -33.36,-3.336 -52.05,-3.336 z m 314.97,3.336 c -38.26,0.891 -65.39,9.117 -81.41,24.692 -16.02,15.574 -24.02,39.82 -24.02,72.738 v 416.391 l 62.06,10.675 V 275.926 c 0,-10.235 0.89,-18.688 2.67,-25.363 1.78,-6.665 4.66,-12.008 8.67,-16.016 4,-4 9.34,-7.004 16.01,-9.004 6.68,-2.004 14.9,-3.664 24.69,-5.004 z m 384.36,180.168 c 0,-27.578 -4,-52.492 -12.01,-74.73 -8.01,-22.25 -19.24,-41.379 -33.7,-57.391 -14.46,-16.015 -31.7,-28.359 -51.72,-37.035 -20.02,-8.672 -41.82,-13.016 -65.39,-13.016 -23.58,0 -45.38,4.344 -65.4,13.016 -20.01,8.676 -37.25,21.02 -51.71,37.035 -14.46,16.012 -25.69,35.141 -33.7,57.391 -8.01,22.238 -12.01,47.152 -12.01,74.73 0,27.145 4,51.938 12.01,74.407 8.01,22.464 19.24,41.703 33.7,57.718 14.46,16.012 31.7,28.364 51.71,37.039 20.02,8.672 41.82,13.016 65.4,13.016 23.57,0 45.37,-4.344 65.39,-13.016 20.02,-8.675 37.26,-21.027 51.72,-37.039 14.46,-16.015 25.69,-35.254 33.7,-57.718 8.01,-22.469 12.01,-47.262 12.01,-74.407 z m -64.73,0 c 0,39.153 -8.79,70.184 -26.36,93.09 -17.57,22.906 -41.48,34.367 -71.73,34.367 -30.25,0 -54.16,-11.461 -71.73,-34.367 -17.58,-22.906 -26.36,-53.937 -26.36,-93.09 0,-39.144 8.78,-70.176 26.36,-93.086 17.57,-22.91 41.48,-34.363 71.73,-34.363 30.25,0 54.16,11.453 71.73,34.363 17.57,22.91 26.36,53.942 26.36,93.086 z m 428.4,-163.484 c -14.23,-3.559 -33.03,-7.336 -56.38,-11.34 -23.36,-4.004 -50.38,-6.004 -81.08,-6.004 -26.69,0 -49.15,3.891 -67.39,11.672 -18.25,7.785 -32.92,18.797 -44.04,33.027 -11.12,14.243 -19.13,31.032 -24.02,50.387 -4.9,19.352 -7.35,40.82 -7.35,64.395 v 194.847 h 62.06 V 340.648 c 0,-42.261 6.67,-72.507 20.01,-90.746 13.36,-18.246 35.82,-27.363 67.41,-27.363 6.66,0 13.56,0.231 20.68,0.672 7.13,0.437 13.79,1 20.02,1.668 6.23,0.664 11.9,1.332 17.02,2.004 5.12,0.66 8.78,1.441 11,2.332 v 292.941 h 62.06 z m 330.98,263.578 c -7.56,6.234 -18.46,12.238 -32.69,18.016 -14.24,5.785 -29.81,8.675 -46.71,8.675 -17.8,0 -33.04,-3.222 -45.72,-9.675 -12.67,-6.446 -23.02,-15.344 -31.03,-26.688 -8,-11.348 -13.78,-24.801 -17.34,-40.375 -3.57,-15.566 -5.34,-32.25 -5.34,-50.047 0,-40.476 10.01,-71.73 30.03,-93.75 20.02,-22.019 46.7,-33.027 80.07,-33.027 16.91,0 31.03,0.769 42.37,2.332 11.34,1.559 20.13,3.223 26.36,5.004 z m 0,233.559 62.06,10.675 V 185.172 c -14.24,-4.004 -32.48,-8.004 -54.71,-12.012 -22.25,-4 -47.83,-6.004 -76.75,-6.004 -26.69,0 -50.71,4.227 -72.06,12.68 -21.35,8.453 -39.6,20.461 -54.73,36.035 -15.12,15.567 -26.79,34.582 -35.03,57.055 -8.23,22.461 -12.34,47.707 -12.34,75.73 0,26.696 3.45,51.168 10.34,73.407 6.9,22.242 17.02,41.371 30.37,57.386 13.34,16.012 29.69,28.473 49.04,37.371 19.36,8.891 41.48,13.344 66.4,13.344 20.01,0 37.7,-2.672 53.05,-8.008 15.34,-5.336 26.8,-10.457 34.36,-15.355 v 175.508" /><path
         id="path16"
         style="fill:#feb204;fill-opacity:1;fill-rule:nonzero;stroke:none"
         d="m 3235.17,254.57 c 14.69,0 26.81,1.227 36.38,3.66 9.56,2.454 17.23,5.797 23.02,10.02 5.77,4.219 9.79,9.23 12,15.008 2.23,5.793 3.33,12.238 3.33,19.355 0,15.133 -7.11,27.696 -21.34,37.703 -14.23,10.004 -38.7,20.809 -73.41,32.364 -15.12,5.343 -30.25,11.457 -45.37,18.355 -15.12,6.895 -28.69,15.574 -40.71,26.024 -12.01,10.449 -21.79,23.132 -29.36,38.035 -7.56,14.902 -11.33,33.031 -11.33,54.39 0,21.352 4,40.582 12.01,57.723 8,17.125 19.34,31.691 34.03,43.695 14.66,12.02 32.47,21.246 53.38,27.696 20.91,6.453 44.49,9.675 70.73,9.675 31.14,0 58.06,-3.332 80.74,-10.007 22.69,-6.676 41.37,-14.016 56.07,-22.02 -22.7,-61.988 -29.71,-78.469 -73.08,-64.394 -15.79,5.117 -34.81,7.679 -57.06,7.679 -24.9,0 -42.81,-3.453 -53.71,-10.351 -10.9,-6.887 -16.35,-17.465 -16.35,-31.703 0,-8.442 2,-15.559 6,-21.344 4.01,-5.785 9.68,-11.012 17.02,-15.684 7.34,-4.676 15.79,-8.898 25.36,-12.683 9.56,-3.774 20.13,-7.668 31.69,-11.668 24.02,-8.907 44.93,-17.692 62.72,-26.368 17.8,-8.667 32.59,-18.777 44.38,-30.359 11.8,-11.562 20.58,-25.129 26.36,-40.703 5.79,-15.57 8.67,-34.477 8.67,-56.727 0,-43.14 -15.12,-76.613 -45.37,-100.421 -30.25,-23.793 -75.85,-35.688 -136.8,-35.688 -20.46,0 -38.92,1.215 -55.38,3.66 -16.46,2.449 -31.02,5.453 -43.71,9.012 -12.67,3.555 -23.57,7.34 -32.68,11.344 -9.14,4.004 -16.81,7.777 -23.03,11.34 22.02,62.058 38.36,74.859 80.4,62.39 20.24,-6.008 45.05,-9.008 74.4,-9.008 z m 583.88,96.758 c 0,-27.586 -4,-52.828 -12.01,-75.746 -8,-22.906 -19.57,-42.469 -34.7,-58.711 -15.12,-16.25 -33.26,-28.805 -54.38,-37.703 -21.12,-8.898 -44.82,-13.336 -71.06,-13.336 -25.81,0 -49.27,4.438 -70.41,13.336 -21.13,8.898 -39.26,21.453 -54.37,37.703 -15.14,16.242 -26.92,35.805 -35.37,58.711 -8.46,22.918 -12.69,48.16 -12.69,75.746 0,27.582 4.35,52.719 13.01,75.402 8.68,22.692 20.7,42.036 36.04,58.043 15.35,16.024 33.59,28.485 54.72,37.383 21.13,8.899 44.14,13.344 69.07,13.344 25.35,0 48.6,-4.445 69.72,-13.344 21.14,-8.898 39.26,-21.359 54.39,-37.383 15.12,-16.007 26.92,-35.351 35.36,-58.043 8.46,-22.683 12.68,-47.82 12.68,-75.402 z m -101.43,0 c 0,30.699 -6.12,54.832 -18.35,72.406 -12.23,17.567 -29.69,26.364 -52.37,26.364 -22.7,0 -40.26,-8.797 -52.72,-26.364 -12.46,-17.574 -18.69,-41.707 -18.69,-72.406 0,-30.691 6.23,-55.051 18.69,-73.07 12.46,-18.016 30.02,-27.02 52.72,-27.02 22.68,0 40.14,9.004 52.37,27.02 12.23,18.019 18.35,42.379 18.35,73.07 z m 318.31,-182.84 c -28.92,0.45 -52.39,3.563 -70.4,9.348 -18.03,5.777 -32.26,13.902 -42.71,24.352 -10.45,10.453 -17.57,23.14 -21.35,38.035 -3.78,14.898 -5.68,31.699 -5.68,50.379 v 386.367 l 99.42,16.015 V 310.621 c 0,-8.883 0.68,-16.898 2.01,-24.023 1.33,-7.118 3.89,-13.121 7.68,-18.016 3.78,-4.894 9.23,-8.898 16.35,-12.012 7.11,-3.105 16.68,-5.117 28.69,-6.015 z m 214.86,76.075 c 9.8,0 19.13,0.226 28.03,0.667 8.9,0.442 16.01,1.11 21.35,2.008 v 75.395 c -4,0.89 -10.01,1.781 -18.01,2.68 -8.01,0.882 -15.35,1.324 -22.03,1.324 -9.34,0 -18.12,-0.551 -26.34,-1.664 -8.24,-1.11 -15.47,-3.223 -21.71,-6.344 -6.22,-3.113 -11.1,-7.348 -14.67,-12.672 -3.56,-5.352 -5.34,-12.004 -5.34,-20.023 0,-15.571 5.23,-26.36 15.68,-32.36 10.46,-6.011 24.81,-9.011 43.04,-9.011 z m -8,290.937 c 29.35,0 53.83,-3.332 73.4,-10.008 19.58,-6.676 35.25,-16.238 47.04,-28.699 11.79,-12.453 20.13,-27.574 25.02,-45.371 4.91,-17.797 7.34,-37.586 7.34,-59.387 V 185.172 c -14.23,-3.113 -34.03,-6.781 -59.39,-11.008 -25.35,-4.226 -56.05,-6.336 -92.08,-6.336 -22.68,0 -43.26,2 -61.72,5.996 -18.47,4.012 -34.36,10.567 -47.71,19.688 -13.35,9.117 -23.58,21.027 -30.7,35.703 -7.12,14.691 -10.68,32.699 -10.68,54.043 0,20.476 4.12,37.82 12.36,52.055 8.22,14.234 19.23,25.585 33.01,34.031 13.79,8.457 29.6,14.574 47.39,18.347 17.79,3.786 36.25,5.676 55.38,5.676 12.89,0 24.36,-0.551 34.37,-1.672 10.01,-1.109 18.13,-2.547 24.35,-4.332 v 9.34 c 0,16.906 -5.11,30.473 -15.34,40.703 -10.23,10.231 -28.03,15.348 -53.39,15.348 -16.9,0 -33.57,-1.223 -50.05,-3.664 -16.45,-2.453 -30.69,-5.899 -42.71,-10.352 l -12.67,80.078 c 5.79,1.77 13.01,3.672 21.69,5.676 8.67,2 18.12,3.77 28.36,5.332 10.23,1.571 21.02,2.891 32.35,4.012 11.36,1.113 22.81,1.664 34.38,1.664 z m 454.42,-97.422 c -8.91,2.223 -19.35,4.547 -31.36,7.004 -12.02,2.445 -24.91,3.676 -38.7,3.676 -6.22,0 -13.69,-0.559 -22.36,-1.68 -8.68,-1.101 -15.22,-2.332 -19.68,-3.664 v -268.25 h -99.43 v 332.309 c 17.79,6.226 38.8,12.121 63.06,17.679 24.24,5.563 51.27,8.348 81.08,8.348 5.32,0 11.79,-0.332 19.36,-1.004 7.56,-0.66 15.11,-1.551 22.68,-2.672 7.55,-1.109 15.12,-2.441 22.69,-3.996 7.56,-1.558 14.01,-3.453 19.34,-5.676 l -16.68,-82.074" /><path
         id="path18"
         style="fill:#1155aa;fill-opacity:1;fill-rule:evenodd;stroke:none"
         d="M 214.793,143.535 C -5.06641,257.039 61.3359,579.082 371.297,560.543 5.35938,691.359 -144.789,177.773 201.047,37.1367 411.266,-48.3555 795.977,51.3438 806.633,451.184 682.297,167.738 395.672,50.1602 214.793,143.535 Z m 55.559,80.516 C 353.273,526.391 808.008,788.895 1015.79,512.609 1148.53,336.105 982.477,9.20703 649.957,61.0664 1072.92,-74.7969 1277.98,363.293 1099.02,590.023 900.922,841.043 346.094,779.191 270.352,224.051" /><path
         id="path20"
         style="fill:#feb204;fill-opacity:1;fill-rule:evenodd;stroke:none"
         d="M 697.68,751.488 C 665.625,864.531 560.109,945.879 437.277,942.43 292.086,938.367 177.688,817.359 181.75,672.168 c 0.793,-28.113 5.965,-55.074 14.852,-80.242 -9.317,232.117 368.3,363.359 501.078,159.562 z m -683.8675,-71.125 91.1715,13.485 46.969,6.945 c -0.832,-12.113 -0.926,-24.406 -0.234,-36.836 0.082,-1.355 0.183,-2.687 0.277,-4.023 l -47.012,6.945 z m 57.7227,215.41 85.6948,-33.906 44.149,-17.469 c -6.77,-10.074 -13.008,-20.675 -18.617,-31.785 -0.61,-1.207 -1.184,-2.414 -1.77,-3.629 l -37.238,29.528 z m 157.6948,157.697 57.262,-72.216 29.492,-37.203 c -10.898,-5.336 -21.589,-11.395 -32.007,-18.219 -1.133,-0.738 -2.239,-1.496 -3.352,-2.25 l -17.484,44.188 z m 215.415,57.73 13.48,-91.18 6.941,-46.965 c -12.109,0.828 -24.402,0.922 -36.836,0.226 -1.339,-0.07 -2.675,-0.183 -4.019,-0.277 l 6.949,47.016 z m 215.418,-57.73 -33.911,-85.7 -17.468,-44.145 c -10.075,6.777 -20.676,13.004 -31.793,18.617 -1.203,0.606 -2.414,1.18 -3.618,1.774 l 29.528,37.238 z M 817.762,895.773 745.539,838.508 708.336,809.016 c -5.332,10.906 -11.398,21.589 -18.219,32.015 -0.738,1.125 -1.504,2.227 -2.25,3.344 l 44.188,17.484 85.707,33.914" /></g></g></svg>